<?xml version="1.0" encoding="utf-8"?><svg xmlns="http://www.w3.org/2000/svg" xmlns:xlink="http://www.w3.org/1999/xlink"><symbol fill="none" viewBox="0 0 27 33" id="apple-store" xmlns="http://www.w3.org/2000/svg"><path d="M22.696 17.888a7.356 7.356 0 0 1 3.474-6.123 7.562 7.562 0 0 0-5.885-3.18c-2.476-.26-4.876 1.48-6.137 1.48-1.287 0-3.23-1.455-5.321-1.412a7.902 7.902 0 0 0-6.595 4.022C-.62 17.612 1.507 24.868 4.239 28.86c1.366 1.954 2.964 4.137 5.054 4.06 2.045-.085 2.809-1.304 5.277-1.304 2.446 0 3.163 1.304 5.295 1.254 2.195-.035 3.577-1.962 4.896-3.935A16.164 16.164 0 0 0 27 24.374c-2.579-1.09-4.301-3.686-4.304-6.486ZM18.668 5.96A7.184 7.184 0 0 0 20.31.813a7.31 7.31 0 0 0-4.73 2.447 6.898 6.898 0 0 0-1.686 4.956 6.115 6.115 0 0 0 4.773-2.256Z" fill="currentColor"/></symbol><symbol fill="none" viewBox="0 0 27 33" id="apple-store" xmlns="http://www.w3.org/2000/svg"><path d="M22.696 17.888a7.356 7.356 0 0 1 3.474-6.123 7.562 7.562 0 0 0-5.885-3.18c-2.476-.26-4.876 1.48-6.137 1.48-1.287 0-3.23-1.455-5.321-1.412a7.902 7.902 0 0 0-6.595 4.022C-.62 17.612 1.507 24.868 4.239 28.86c1.366 1.954 2.964 4.137 5.054 4.06 2.045-.085 2.809-1.304 5.277-1.304 2.446 0 3.163 1.304 5.295 1.254 2.195-.035 3.577-1.962 4.896-3.935A16.164 16.164 0 0 0 27 24.374c-2.579-1.09-4.301-3.686-4.304-6.486ZM18.668 5.96A7.184 7.184 0 0 0 20.31.813a7.31 7.31 0 0 0-4.73 2.447 6.898 6.898 0 0 0-1.686 4.956 6.115 6.115 0 0 0 4.773-2.256Z" fill="currentColor"/></symbol><symbol fill="none" viewBox="0 0 24 24" id="butterfly" xmlns="http://www.w3.org/2000/svg"><path fill-rule="evenodd" clip-rule="evenodd" d="M12.128 12.623C11.8 18.913 6.508 23.927 0 24V0c6.507.073 11.8 5.086 12.128 11.377C12.453 5.168 17.611.207 24 .005v23.99c-6.39-.2-11.547-5.163-11.872-11.373Z" fill="#FF6428"/></symbol><symbol fill="none" viewBox="0 0 24 24" id="butterfly" xmlns="http://www.w3.org/2000/svg"><path fill-rule="evenodd" clip-rule="evenodd" d="M12.128 12.623C11.8 18.913 6.508 23.927 0 24V0c6.507.073 11.8 5.086 12.128 11.377C12.453 5.168 17.611.207 24 .005v23.99c-6.39-.2-11.547-5.163-11.872-11.373Z" fill="#FF6428"/></symbol><symbol fill="none" viewBox="0 0 27 30" id="play-store" xmlns="http://www.w3.org/2000/svg"><path d="m.589 29.406 13.9-14.417L.6.6C.23.823 0 1.34 0 2.02v25.978c.005.679.226 1.16.589 1.408ZM14.986 14.591l4.14-4.294L2.266.707A1.815 1.815 0 0 0 1.33.447L14.984 14.59l.002.001ZM14.987 15.39 1.29 29.596c.344.006.682-.087.978-.269l16.894-9.615-4.175-4.322ZM25.234 13.776l-5.61-3.197-4.254 4.412 4.285 4.44 5.578-3.189c1.186-.677 1.186-1.792.001-2.466Z" fill="currentColor"/></symbol><symbol fill="none" viewBox="0 0 27 30" id="play-store" xmlns="http://www.w3.org/2000/svg"><path d="m.589 29.406 13.9-14.417L.6.6C.23.823 0 1.34 0 2.02v25.978c.005.679.226 1.16.589 1.408ZM14.986 14.591l4.14-4.294L2.266.707A1.815 1.815 0 0 0 1.33.447L14.984 14.59l.002.001ZM14.987 15.39 1.29 29.596c.344.006.682-.087.978-.269l16.894-9.615-4.175-4.322ZM25.234 13.776l-5.61-3.197-4.254 4.412 4.285 4.44 5.578-3.189c1.186-.677 1.186-1.792.001-2.466Z" fill="currentColor"/></symbol></svg>