<?xml version="1.0" encoding="utf-8"?><svg xmlns="http://www.w3.org/2000/svg" xmlns:xlink="http://www.w3.org/1999/xlink"><symbol fill="none" viewBox="0 0 32 32" id="app" xmlns="http://www.w3.org/2000/svg"><path fill-rule="evenodd" clip-rule="evenodd" d="M18.96 2.96c.92-.92 2.22-1.293 3.707-1.293h2.667c1.487 0 2.786.372 3.707 1.293.92.92 1.293 2.22 1.293 3.707v2.666c0 1.488-.373 2.787-1.293 3.707-.92.92-2.22 1.293-3.707 1.293h-2.667c-1.488 0-2.787-.372-3.707-1.293-.92-.92-1.293-2.22-1.293-3.707V6.667c0-1.488.372-2.787 1.293-3.707Zm1.414 1.414c-.413.413-.707 1.113-.707 2.293v2.666c0 1.18.294 1.88.707 2.293.413.413 1.114.707 2.293.707h2.667c1.179 0 1.88-.294 2.293-.707.413-.413.707-1.114.707-2.293V6.667c0-1.18-.294-1.88-.707-2.293-.413-.413-1.114-.707-2.293-.707h-2.667c-1.18 0-1.88.294-2.293.707ZM2.96 18.96c.92-.92 2.22-1.293 3.707-1.293h2.667c1.487 0 2.786.372 3.707 1.292.92.92 1.293 2.22 1.293 3.708v2.666c0 1.488-.373 2.787-1.293 3.707-.92.92-2.22 1.293-3.707 1.293H6.667c-1.487 0-2.787-.372-3.707-1.293-.92-.92-1.293-2.22-1.293-3.707v-2.666c0-1.488.373-2.787 1.293-3.708Zm1.414 1.414c-.413.413-.707 1.113-.707 2.293v2.666c0 1.18.294 1.88.707 2.293.413.413 1.114.707 2.293.707h2.667c1.179 0 1.88-.294 2.293-.707.412-.413.707-1.114.707-2.293v-2.666c0-1.18-.294-1.88-.707-2.293-.413-.413-1.114-.707-2.293-.707H6.667c-1.18 0-1.88.294-2.293.707ZM8 3.667a4.333 4.333 0 1 0 0 8.666 4.333 4.333 0 0 0 0-8.666ZM1.667 8a6.333 6.333 0 1 1 12.667 0A6.333 6.333 0 0 1 1.667 8ZM24 19.667a4.333 4.333 0 1 0 0 8.666 4.333 4.333 0 0 0 0-8.666ZM17.667 24a6.333 6.333 0 1 1 12.667 0 6.333 6.333 0 0 1-12.667 0Z" fill="currentColor"/></symbol><symbol fill="none" viewBox="0 0 32 32" id="app" xmlns="http://www.w3.org/2000/svg"><path fill-rule="evenodd" clip-rule="evenodd" d="M18.96 2.96c.92-.92 2.22-1.293 3.707-1.293h2.667c1.487 0 2.786.372 3.707 1.293.92.92 1.293 2.22 1.293 3.707v2.666c0 1.488-.373 2.787-1.293 3.707-.92.92-2.22 1.293-3.707 1.293h-2.667c-1.488 0-2.787-.372-3.707-1.293-.92-.92-1.293-2.22-1.293-3.707V6.667c0-1.488.372-2.787 1.293-3.707Zm1.414 1.414c-.413.413-.707 1.113-.707 2.293v2.666c0 1.18.294 1.88.707 2.293.413.413 1.114.707 2.293.707h2.667c1.179 0 1.88-.294 2.293-.707.413-.413.707-1.114.707-2.293V6.667c0-1.18-.294-1.88-.707-2.293-.413-.413-1.114-.707-2.293-.707h-2.667c-1.18 0-1.88.294-2.293.707ZM2.96 18.96c.92-.92 2.22-1.293 3.707-1.293h2.667c1.487 0 2.786.372 3.707 1.292.92.92 1.293 2.22 1.293 3.708v2.666c0 1.488-.373 2.787-1.293 3.707-.92.92-2.22 1.293-3.707 1.293H6.667c-1.487 0-2.787-.372-3.707-1.293-.92-.92-1.293-2.22-1.293-3.707v-2.666c0-1.488.373-2.787 1.293-3.708Zm1.414 1.414c-.413.413-.707 1.113-.707 2.293v2.666c0 1.18.294 1.88.707 2.293.413.413 1.114.707 2.293.707h2.667c1.179 0 1.88-.294 2.293-.707.412-.413.707-1.114.707-2.293v-2.666c0-1.18-.294-1.88-.707-2.293-.413-.413-1.114-.707-2.293-.707H6.667c-1.18 0-1.88.294-2.293.707ZM8 3.667a4.333 4.333 0 1 0 0 8.666 4.333 4.333 0 0 0 0-8.666ZM1.667 8a6.333 6.333 0 1 1 12.667 0A6.333 6.333 0 0 1 1.667 8ZM24 19.667a4.333 4.333 0 1 0 0 8.666 4.333 4.333 0 0 0 0-8.666ZM17.667 24a6.333 6.333 0 1 1 12.667 0 6.333 6.333 0 0 1-12.667 0Z" fill="currentColor"/></symbol><symbol fill="none" viewBox="0 0 27 33" id="apple-store" xmlns="http://www.w3.org/2000/svg"><path d="M22.696 17.888a7.356 7.356 0 0 1 3.474-6.123 7.562 7.562 0 0 0-5.885-3.18c-2.476-.26-4.876 1.48-6.137 1.48-1.287 0-3.23-1.455-5.321-1.412a7.902 7.902 0 0 0-6.595 4.022C-.62 17.612 1.507 24.868 4.239 28.86c1.366 1.954 2.964 4.137 5.054 4.06 2.045-.085 2.809-1.304 5.277-1.304 2.446 0 3.163 1.304 5.295 1.254 2.195-.035 3.577-1.962 4.896-3.935A16.164 16.164 0 0 0 27 24.374c-2.579-1.09-4.301-3.686-4.304-6.486ZM18.668 5.96A7.184 7.184 0 0 0 20.31.813a7.31 7.31 0 0 0-4.73 2.447 6.898 6.898 0 0 0-1.686 4.956 6.115 6.115 0 0 0 4.773-2.256Z" fill="currentColor"/></symbol><symbol fill="none" viewBox="0 0 27 33" id="apple-store" xmlns="http://www.w3.org/2000/svg"><path d="M22.696 17.888a7.356 7.356 0 0 1 3.474-6.123 7.562 7.562 0 0 0-5.885-3.18c-2.476-.26-4.876 1.48-6.137 1.48-1.287 0-3.23-1.455-5.321-1.412a7.902 7.902 0 0 0-6.595 4.022C-.62 17.612 1.507 24.868 4.239 28.86c1.366 1.954 2.964 4.137 5.054 4.06 2.045-.085 2.809-1.304 5.277-1.304 2.446 0 3.163 1.304 5.295 1.254 2.195-.035 3.577-1.962 4.896-3.935A16.164 16.164 0 0 0 27 24.374c-2.579-1.09-4.301-3.686-4.304-6.486ZM18.668 5.96A7.184 7.184 0 0 0 20.31.813a7.31 7.31 0 0 0-4.73 2.447 6.898 6.898 0 0 0-1.686 4.956 6.115 6.115 0 0 0 4.773-2.256Z" fill="currentColor"/></symbol><symbol fill="none" viewBox="0 0 24 24" id="butterfly" xmlns="http://www.w3.org/2000/svg"><path fill-rule="evenodd" clip-rule="evenodd" d="M12.128 12.623C11.8 18.913 6.508 23.927 0 24V0c6.507.073 11.8 5.086 12.128 11.377C12.453 5.168 17.611.207 24 .005v23.99c-6.39-.2-11.547-5.163-11.872-11.373Z" fill="#FF6428"/></symbol><symbol fill="none" viewBox="0 0 24 24" id="butterfly" xmlns="http://www.w3.org/2000/svg"><path fill-rule="evenodd" clip-rule="evenodd" d="M12.128 12.623C11.8 18.913 6.508 23.927 0 24V0c6.507.073 11.8 5.086 12.128 11.377C12.453 5.168 17.611.207 24 .005v23.99c-6.39-.2-11.547-5.163-11.872-11.373Z" fill="#FF6428"/></symbol><symbol fill="none" viewBox="0 0 27 30" id="play-store" xmlns="http://www.w3.org/2000/svg"><path d="m.589 29.406 13.9-14.417L.6.6C.23.823 0 1.34 0 2.02v25.978c.005.679.226 1.16.589 1.408ZM14.986 14.591l4.14-4.294L2.266.707A1.815 1.815 0 0 0 1.33.447L14.984 14.59l.002.001ZM14.987 15.39 1.29 29.596c.344.006.682-.087.978-.269l16.894-9.615-4.175-4.322ZM25.234 13.776l-5.61-3.197-4.254 4.412 4.285 4.44 5.578-3.189c1.186-.677 1.186-1.792.001-2.466Z" fill="currentColor"/></symbol><symbol fill="none" viewBox="0 0 27 30" id="play-store" xmlns="http://www.w3.org/2000/svg"><path d="m.589 29.406 13.9-14.417L.6.6C.23.823 0 1.34 0 2.02v25.978c.005.679.226 1.16.589 1.408ZM14.986 14.591l4.14-4.294L2.266.707A1.815 1.815 0 0 0 1.33.447L14.984 14.59l.002.001ZM14.987 15.39 1.29 29.596c.344.006.682-.087.978-.269l16.894-9.615-4.175-4.322ZM25.234 13.776l-5.61-3.197-4.254 4.412 4.285 4.44 5.578-3.189c1.186-.677 1.186-1.792.001-2.466Z" fill="currentColor"/></symbol><symbol fill="none" viewBox="0 0 32 32" id="truck" xmlns="http://www.w3.org/2000/svg"><path fill-rule="evenodd" clip-rule="evenodd" d="M2.473 4.913A6.328 6.328 0 0 1 8 1.667h12a1 1 0 0 1 1 1V16a3.674 3.674 0 0 1-3.666 3.667H16a1 1 0 1 1 0-2h1.334c.914 0 1.666-.753 1.666-1.667V3.667H8a4.328 4.328 0 0 0-3.78 2.22 1 1 0 1 1-1.747-.974Z" fill="currentColor"/><path fill-rule="evenodd" clip-rule="evenodd" d="M19 6.667a1 1 0 0 1 1-1h2.454c1.325 0 2.53.717 3.184 1.844l.004.006 2.28 3.987A1 1 0 0 1 27.054 13h-1.72a.337.337 0 0 0-.334.333v4c0 .181.153.334.334.334h4a1 1 0 0 1 1 1v4c0 2.765-2.235 5-5 5H24a1 1 0 0 1-1-1c0-.915-.752-1.667-1.666-1.667-.915 0-1.667.752-1.667 1.667a1 1 0 0 1-1 1h-5.333a1 1 0 0 1-1-1c0-.915-.753-1.667-1.667-1.667S9 25.752 9 26.667a1 1 0 0 1-1 1H6.667c-2.766 0-5-2.235-5-5a1 1 0 1 1 2 0c0 1.66 1.339 3 3 3h.472A3.678 3.678 0 0 1 10.667 23c1.672 0 3.09 1.13 3.528 2.667h3.611A3.678 3.678 0 0 1 21.334 23c1.672 0 3.09 1.13 3.527 2.667h.473c1.66 0 3-1.34 3-3v-3h-3A2.337 2.337 0 0 1 23 17.333v-4A2.337 2.337 0 0 1 25.33 11l-1.421-2.485-.002-.002a1.688 1.688 0 0 0-1.453-.846H21V16a3.674 3.674 0 0 1-3.666 3.667H16a1 1 0 1 1 0-2h1.334c.914 0 1.666-.753 1.666-1.667V6.667Z" fill="currentColor"/><path fill-rule="evenodd" clip-rule="evenodd" d="M10.667 25a1.667 1.667 0 1 0 0 3.333 1.667 1.667 0 0 0 0-3.333ZM7 26.667a3.667 3.667 0 1 1 7.333 0 3.667 3.667 0 0 1-7.333 0ZM21.334 25a1.667 1.667 0 1 0 0 3.333 1.667 1.667 0 0 0 0-3.333Zm-3.667 1.667a3.667 3.667 0 1 1 7.333 0 3.667 3.667 0 0 1-7.333 0ZM25.333 13a.337.337 0 0 0-.333.333v4c0 .181.152.334.333.334h3v-1.402L26.473 13h-1.14ZM23 13.333A2.337 2.337 0 0 1 25.333 11h1.72a1 1 0 0 1 .87.505l2.28 4a1 1 0 0 1 .13.495v2.667a1 1 0 0 1-1 1h-4A2.337 2.337 0 0 1 23 17.333v-4ZM1.667 10.667a1 1 0 0 1 1-1h8a1 1 0 1 1 0 2h-8a1 1 0 0 1-1-1ZM1.667 14.667a1 1 0 0 1 1-1H8a1 1 0 1 1 0 2H2.667a1 1 0 0 1-1-1ZM1.667 18.667a1 1 0 0 1 1-1h2.667a1 1 0 1 1 0 2H2.667a1 1 0 0 1-1-1Z" fill="currentColor"/></symbol><symbol fill="none" viewBox="0 0 32 32" id="truck" xmlns="http://www.w3.org/2000/svg"><path fill-rule="evenodd" clip-rule="evenodd" d="M2.473 4.913A6.328 6.328 0 0 1 8 1.667h12a1 1 0 0 1 1 1V16a3.674 3.674 0 0 1-3.666 3.667H16a1 1 0 1 1 0-2h1.334c.914 0 1.666-.753 1.666-1.667V3.667H8a4.328 4.328 0 0 0-3.78 2.22 1 1 0 1 1-1.747-.974Z" fill="currentColor"/><path fill-rule="evenodd" clip-rule="evenodd" d="M19 6.667a1 1 0 0 1 1-1h2.454c1.325 0 2.53.717 3.184 1.844l.004.006 2.28 3.987A1 1 0 0 1 27.054 13h-1.72a.337.337 0 0 0-.334.333v4c0 .181.153.334.334.334h4a1 1 0 0 1 1 1v4c0 2.765-2.235 5-5 5H24a1 1 0 0 1-1-1c0-.915-.752-1.667-1.666-1.667-.915 0-1.667.752-1.667 1.667a1 1 0 0 1-1 1h-5.333a1 1 0 0 1-1-1c0-.915-.753-1.667-1.667-1.667S9 25.752 9 26.667a1 1 0 0 1-1 1H6.667c-2.766 0-5-2.235-5-5a1 1 0 1 1 2 0c0 1.66 1.339 3 3 3h.472A3.678 3.678 0 0 1 10.667 23c1.672 0 3.09 1.13 3.528 2.667h3.611A3.678 3.678 0 0 1 21.334 23c1.672 0 3.09 1.13 3.527 2.667h.473c1.66 0 3-1.34 3-3v-3h-3A2.337 2.337 0 0 1 23 17.333v-4A2.337 2.337 0 0 1 25.33 11l-1.421-2.485-.002-.002a1.688 1.688 0 0 0-1.453-.846H21V16a3.674 3.674 0 0 1-3.666 3.667H16a1 1 0 1 1 0-2h1.334c.914 0 1.666-.753 1.666-1.667V6.667Z" fill="currentColor"/><path fill-rule="evenodd" clip-rule="evenodd" d="M10.667 25a1.667 1.667 0 1 0 0 3.333 1.667 1.667 0 0 0 0-3.333ZM7 26.667a3.667 3.667 0 1 1 7.333 0 3.667 3.667 0 0 1-7.333 0ZM21.334 25a1.667 1.667 0 1 0 0 3.333 1.667 1.667 0 0 0 0-3.333Zm-3.667 1.667a3.667 3.667 0 1 1 7.333 0 3.667 3.667 0 0 1-7.333 0ZM25.333 13a.337.337 0 0 0-.333.333v4c0 .181.152.334.333.334h3v-1.402L26.473 13h-1.14ZM23 13.333A2.337 2.337 0 0 1 25.333 11h1.72a1 1 0 0 1 .87.505l2.28 4a1 1 0 0 1 .13.495v2.667a1 1 0 0 1-1 1h-4A2.337 2.337 0 0 1 23 17.333v-4ZM1.667 10.667a1 1 0 0 1 1-1h8a1 1 0 1 1 0 2h-8a1 1 0 0 1-1-1ZM1.667 14.667a1 1 0 0 1 1-1H8a1 1 0 1 1 0 2H2.667a1 1 0 0 1-1-1ZM1.667 18.667a1 1 0 0 1 1-1h2.667a1 1 0 1 1 0 2H2.667a1 1 0 0 1-1-1Z" fill="currentColor"/></symbol><symbol fill="none" viewBox="0 0 32 32" id="wallet" xmlns="http://www.w3.org/2000/svg"><path fill-rule="evenodd" clip-rule="evenodd" d="M8.346 11.333a4.025 4.025 0 0 0-4.013 4.014v4.1A6.332 6.332 0 0 1 13 25.334a6.237 6.237 0 0 1-.764 3h11.417a4.025 4.025 0 0 0 4.013-4.013v-.587h-1.533c-1.88 0-3.704-1.374-3.876-3.404a3.678 3.678 0 0 1 1.088-2.969 3.657 3.657 0 0 1 2.628-1.093h1.693v-.92a4.025 4.025 0 0 0-4.013-4.014H8.346Zm-6.013 4.014a6.025 6.025 0 0 1 6.013-6.014h15.307a6.025 6.025 0 0 1 6.013 6.014v1.92a1 1 0 0 1-1 1h-2.693c-.479 0-.9.185-1.203.497l-.018.018c-.355.347-.553.84-.503 1.363v.012c.071.847.885 1.576 1.884 1.576h2.533a1 1 0 0 1 1 1v1.587a6.025 6.025 0 0 1-6.013 6.013h-13.48a1 1 0 0 1-.643-1.766c.324-.271.61-.61.833-.99l.012-.022c.397-.644.625-1.41.625-2.222a4.332 4.332 0 0 0-7.044-3.378 1 1 0 0 1-1.623-.782v-5.826Z" fill="currentColor"/><path fill-rule="evenodd" clip-rule="evenodd" d="M18.8 5.267a1.534 1.534 0 0 0-2.073-1.439l-10.587 4a2.798 2.798 0 0 0-1.807 2.625v6.094a1 1 0 1 1-2 0v-6.094c0-2 1.229-3.787 3.1-4.495l10.586-4c2.31-.875 4.78.839 4.78 3.309v5.066a1 1 0 1 1-2 0V5.267ZM25.971 18.267c-.478 0-.9.186-1.203.498l-.018.017c-.355.347-.553.84-.503 1.363l.001.012c.07.847.885 1.577 1.883 1.577h2.59a.368.368 0 0 0 .357-.36v-2.747a.368.368 0 0 0-.356-.36h-2.75Zm-2.627-.907a3.658 3.658 0 0 1 2.627-1.093h2.809c1.271.046 2.298 1.074 2.298 2.36v2.747c0 1.285-1.027 2.314-2.298 2.359h-2.649c-1.879 0-3.703-1.374-3.876-3.404a3.678 3.678 0 0 1 1.089-2.969Z" fill="currentColor"/><path fill-rule="evenodd" clip-rule="evenodd" d="M8.333 16a1 1 0 0 1 1-1h9.333a1 1 0 1 1 0 2H9.333a1 1 0 0 1-1-1ZM6.666 21a4.337 4.337 0 0 0-2.71.955l-.001.002a4.294 4.294 0 0 0-1.622 3.376c0 .813.227 1.578.625 2.222l.008.014a4.293 4.293 0 0 0 3.7 2.098 4.207 4.207 0 0 0 2.864-1.1c.324-.271.61-.61.833-.99l.012-.022c.397-.644.625-1.41.625-2.222A4.332 4.332 0 0 0 6.666 21Zm-3.955-.61A6.332 6.332 0 0 1 13 25.334c-.001 1.184-.332 2.308-.917 3.262a5.795 5.795 0 0 1-1.255 1.493 6.207 6.207 0 0 1-4.163 1.579 6.293 6.293 0 0 1-5.415-3.069 6.228 6.228 0 0 1-.918-3.265c0-1.992.918-3.784 2.378-4.942Z" fill="currentColor"/><path fill-rule="evenodd" clip-rule="evenodd" d="M9.482 23.347a1 1 0 0 1-.055 1.413l-2.84 2.627A1 1 0 0 1 5.2 27.36l-1.32-1.32a1 1 0 1 1 1.414-1.414l.64.64 2.134-1.974a1 1 0 0 1 1.413.055Z" fill="currentColor"/></symbol><symbol fill="none" viewBox="0 0 32 32" id="wallet" xmlns="http://www.w3.org/2000/svg"><path fill-rule="evenodd" clip-rule="evenodd" d="M8.346 11.333a4.025 4.025 0 0 0-4.013 4.014v4.1A6.332 6.332 0 0 1 13 25.334a6.237 6.237 0 0 1-.764 3h11.417a4.025 4.025 0 0 0 4.013-4.013v-.587h-1.533c-1.88 0-3.704-1.374-3.876-3.404a3.678 3.678 0 0 1 1.088-2.969 3.657 3.657 0 0 1 2.628-1.093h1.693v-.92a4.025 4.025 0 0 0-4.013-4.014H8.346Zm-6.013 4.014a6.025 6.025 0 0 1 6.013-6.014h15.307a6.025 6.025 0 0 1 6.013 6.014v1.92a1 1 0 0 1-1 1h-2.693c-.479 0-.9.185-1.203.497l-.018.018c-.355.347-.553.84-.503 1.363v.012c.071.847.885 1.576 1.884 1.576h2.533a1 1 0 0 1 1 1v1.587a6.025 6.025 0 0 1-6.013 6.013h-13.48a1 1 0 0 1-.643-1.766c.324-.271.61-.61.833-.99l.012-.022c.397-.644.625-1.41.625-2.222a4.332 4.332 0 0 0-7.044-3.378 1 1 0 0 1-1.623-.782v-5.826Z" fill="currentColor"/><path fill-rule="evenodd" clip-rule="evenodd" d="M18.8 5.267a1.534 1.534 0 0 0-2.073-1.439l-10.587 4a2.798 2.798 0 0 0-1.807 2.625v6.094a1 1 0 1 1-2 0v-6.094c0-2 1.229-3.787 3.1-4.495l10.586-4c2.31-.875 4.78.839 4.78 3.309v5.066a1 1 0 1 1-2 0V5.267ZM25.971 18.267c-.478 0-.9.186-1.203.498l-.018.017c-.355.347-.553.84-.503 1.363l.001.012c.07.847.885 1.577 1.883 1.577h2.59a.368.368 0 0 0 .357-.36v-2.747a.368.368 0 0 0-.356-.36h-2.75Zm-2.627-.907a3.658 3.658 0 0 1 2.627-1.093h2.809c1.271.046 2.298 1.074 2.298 2.36v2.747c0 1.285-1.027 2.314-2.298 2.359h-2.649c-1.879 0-3.703-1.374-3.876-3.404a3.678 3.678 0 0 1 1.089-2.969Z" fill="currentColor"/><path fill-rule="evenodd" clip-rule="evenodd" d="M8.333 16a1 1 0 0 1 1-1h9.333a1 1 0 1 1 0 2H9.333a1 1 0 0 1-1-1ZM6.666 21a4.337 4.337 0 0 0-2.71.955l-.001.002a4.294 4.294 0 0 0-1.622 3.376c0 .813.227 1.578.625 2.222l.008.014a4.293 4.293 0 0 0 3.7 2.098 4.207 4.207 0 0 0 2.864-1.1c.324-.271.61-.61.833-.99l.012-.022c.397-.644.625-1.41.625-2.222A4.332 4.332 0 0 0 6.666 21Zm-3.955-.61A6.332 6.332 0 0 1 13 25.334c-.001 1.184-.332 2.308-.917 3.262a5.795 5.795 0 0 1-1.255 1.493 6.207 6.207 0 0 1-4.163 1.579 6.293 6.293 0 0 1-5.415-3.069 6.228 6.228 0 0 1-.918-3.265c0-1.992.918-3.784 2.378-4.942Z" fill="currentColor"/><path fill-rule="evenodd" clip-rule="evenodd" d="M9.482 23.347a1 1 0 0 1-.055 1.413l-2.84 2.627A1 1 0 0 1 5.2 27.36l-1.32-1.32a1 1 0 1 1 1.414-1.414l.64.64 2.134-1.974a1 1 0 0 1 1.413.055Z" fill="currentColor"/></symbol></svg>