<svg width="34" height="34" viewBox="0 0 34 34" fill="none" xmlns="http://www.w3.org/2000/svg">
<path d="M13.7354 16.8043C13.7354 14.8884 15.2992 13.3348 17.2288 13.3348C19.1585 13.3348 20.7232 14.8884 20.7232 16.8043C20.7232 18.7203 19.1585 20.2739 17.2288 20.2739C15.2992 20.2739 13.7354 18.7203 13.7354 16.8043ZM11.8464 16.8043C11.8464 19.756 14.2561 22.1486 17.2288 22.1486C20.2016 22.1486 22.6113 19.756 22.6113 16.8043C22.6113 13.8527 20.2016 11.46 17.2288 11.46C14.2561 11.46 11.8464 13.8527 11.8464 16.8043ZM21.5665 11.2481C21.5664 11.4951 21.6401 11.7366 21.7782 11.9421C21.9164 12.1475 22.1128 12.3077 22.3426 12.4023C22.5724 12.4969 22.8253 12.5218 23.0693 12.4737C23.3133 12.4256 23.5375 12.3067 23.7135 12.1321C23.8895 11.9575 24.0093 11.735 24.058 11.4928C24.1066 11.2505 24.0818 10.9994 23.9867 10.7711C23.8916 10.5429 23.7304 10.3478 23.5236 10.2104C23.3168 10.0731 23.0737 9.99978 22.8249 9.99968H22.8244C22.4909 9.99984 22.1711 10.1314 21.9353 10.3655C21.6994 10.5996 21.5668 10.917 21.5665 11.2481ZM12.9941 25.2761C11.9721 25.2299 11.4166 25.0608 11.0475 24.918C10.5581 24.7289 10.2089 24.5036 9.84179 24.1395C9.47466 23.7755 9.24741 23.4291 9.05772 22.9432C8.91382 22.5769 8.74359 22.0252 8.69714 21.0104C8.64632 19.9134 8.63617 19.5838 8.63617 16.8044C8.63617 14.025 8.64716 13.6964 8.69714 12.5984C8.74368 11.5837 8.91517 11.0331 9.05772 10.6656C9.24825 10.1797 9.47516 9.83299 9.84179 9.46847C10.2084 9.10394 10.5573 8.8783 11.0475 8.68996C11.4165 8.54708 11.9721 8.37806 12.9941 8.33193C14.099 8.28147 14.4309 8.2714 17.2288 8.2714C20.0268 8.2714 20.3591 8.2823 21.4649 8.33193C22.4869 8.37814 23.0414 8.54841 23.4115 8.68996C23.9009 8.8783 24.25 9.10444 24.6172 9.46847C24.9843 9.83249 25.2107 10.1797 25.4012 10.6656C25.5451 11.032 25.7154 11.5837 25.7618 12.5984C25.8126 13.6964 25.8228 14.025 25.8228 16.8044C25.8228 19.5838 25.8126 19.9124 25.7618 21.0104C25.7153 22.0252 25.5442 22.5767 25.4012 22.9432C25.2107 23.4291 24.9838 23.7758 24.6172 24.1395C24.2505 24.5032 23.9009 24.7289 23.4115 24.918C23.0425 25.0609 22.4869 25.2299 21.4649 25.2761C20.36 25.3265 20.0281 25.3366 17.2288 25.3366C14.4296 25.3366 14.0986 25.3265 12.9941 25.2761ZM12.9073 6.45951C11.7914 6.50997 11.0289 6.68566 10.363 6.94294C9.67332 7.20863 9.0895 7.56508 8.50611 8.14342C7.92272 8.72176 7.56465 9.30236 7.29706 9.98711C7.03794 10.6487 6.861 11.4054 6.81018 12.5134C6.75853 13.6231 6.7467 13.9779 6.7467 16.8043C6.7467 19.6308 6.75853 19.9856 6.81018 21.0953C6.861 22.2033 7.03794 22.96 7.29706 23.6216C7.56465 24.3059 7.9228 24.8872 8.50611 25.4652C9.08942 26.0433 9.67332 26.3993 10.363 26.6657C11.0301 26.923 11.7914 27.0987 12.9073 27.1492C14.0255 27.1996 14.3822 27.2122 17.2288 27.2122C20.0755 27.2122 20.4328 27.2004 21.5504 27.1492C22.6664 27.0987 23.4284 26.923 24.0947 26.6657C24.784 26.3993 25.3682 26.0436 25.9516 25.4652C26.535 24.8869 26.8923 24.3059 27.1606 23.6216C27.4198 22.96 27.5975 22.2033 27.6475 21.0953C27.6983 19.9847 27.7101 19.6308 27.7101 16.8043C27.7101 13.9779 27.6983 13.6231 27.6475 12.5134C27.5967 11.4053 27.4198 10.6483 27.1606 9.98711C26.8923 9.30277 26.5341 8.72268 25.9516 8.14342C25.3691 7.56416 24.784 7.20863 24.0956 6.94294C23.4284 6.68566 22.6663 6.50914 21.5513 6.45951C20.4336 6.40906 20.0763 6.39648 17.2297 6.39648C14.3831 6.39648 14.0255 6.40822 12.9073 6.45951Z" fill="currentColor"/>
</svg>
