<svg width="34" height="34" viewBox="0 0 34 34" fill="none" xmlns="http://www.w3.org/2000/svg">
<path d="M25.3624 13.2049C25.3624 13.3871 25.3624 13.5692 25.3624 13.7253C25.3624 19.1114 21.2219 25.3301 13.6748 25.3301C11.3425 25.3301 9.19369 24.6535 7.35931 23.5087C7.67378 23.5347 8.01445 23.5607 8.32891 23.5607C10.2419 23.5607 12.0239 22.9102 13.439 21.8174C11.6308 21.7914 10.1109 20.5945 9.61297 18.9813C9.87503 19.0333 10.1109 19.0593 10.3991 19.0593C10.766 19.0593 11.1329 19.0073 11.4736 18.9032C9.58677 18.5389 8.17168 16.8997 8.17168 14.9222C8.17168 14.8962 8.17168 14.8962 8.17168 14.8702C8.72199 15.1824 9.35092 15.3645 10.0323 15.3906C8.93164 14.662 8.19789 13.4131 8.19789 11.982C8.19789 11.2274 8.40753 10.5249 8.7482 9.92644C10.766 12.3983 13.8058 14.0115 17.2125 14.1937C17.1339 13.9074 17.1077 13.5692 17.1077 13.257C17.1077 10.9932 18.9421 9.17188 21.2219 9.17188C22.4012 9.17188 23.4756 9.66625 24.2094 10.4468C25.1527 10.2647 26.0175 9.92644 26.8299 9.45809C26.5154 10.4208 25.8603 11.2014 25.0217 11.7218C25.8603 11.6177 26.6465 11.4096 27.3802 11.0713C26.8561 11.9039 26.1748 12.6325 25.3624 13.2049Z" fill="currentColor"/>
</svg>
